<svg width="36" height="36" viewBox="0 0 36 36" fill="currentColor" xmlns="http://www.w3.org/2000/svg">
<path fill-rule="evenodd" clip-rule="evenodd" d="M17.2035 10.4535C17.308 10.3487 17.4322 10.2656 17.5688 10.2089C17.7055 10.1522 17.852 10.123 18 10.123C18.148 10.123 18.2945 10.1522 18.4312 10.2089C18.5679 10.2656 18.692 10.3487 18.7965 10.4535L32.2965 23.9535C32.5078 24.1648 32.6264 24.4513 32.6264 24.75C32.6264 25.0488 32.5078 25.3353 32.2965 25.5465C32.0853 25.7578 31.7988 25.8764 31.5 25.8764C31.2013 25.8764 30.9148 25.7578 30.7035 25.5465L18 12.8408L5.29652 25.5465C5.08527 25.7578 4.79876 25.8764 4.50002 25.8764C4.20127 25.8764 3.91476 25.7578 3.70352 25.5465C3.49227 25.3353 3.3736 25.0488 3.3736 24.75C3.3736 24.4513 3.49227 24.1648 3.70352 23.9535L17.2035 10.4535Z" fill="currentColor"/>
</svg>
